<?xml version="1.0" encoding="UTF-8" standalone="no"?>
<!-- Created with Inkscape (http://www.inkscape.org/) -->

<svg
   xmlns:dc="http://purl.org/dc/elements/1.1/"
   xmlns:cc="http://creativecommons.org/ns#"
   xmlns:rdf="http://www.w3.org/1999/02/22-rdf-syntax-ns#"
   xmlns:svg="http://www.w3.org/2000/svg"
   xmlns="http://www.w3.org/2000/svg"
   xmlns:sodipodi="http://sodipodi.sourceforge.net/DTD/sodipodi-0.dtd"
   xmlns:inkscape="http://www.inkscape.org/namespaces/inkscape"
   width="150mm"
   height="125mm"
   viewBox="0 0 150 125"
   version="1.1"
   id="svg3729"
   sodipodi:docname="black_branch.svg"
   inkscape:version="0.92.4 (5da689c313, 2019-01-14)"
   style="enable-background:new;opacity:1">
  <defs
     id="defs3723" />
  <sodipodi:namedview
     id="base"
     pagecolor="#ffffff"
     bordercolor="#666666"
     borderopacity="1.0"
     inkscape:pageopacity="0"
     inkscape:pageshadow="2"
     inkscape:zoom="1.4"
     inkscape:cx="273.02184"
     inkscape:cy="235.92134"
     inkscape:document-units="mm"
     inkscape:current-layer="layer1"
     showgrid="false"
     inkscape:window-width="1920"
     inkscape:window-height="1001"
     inkscape:window-x="-9"
     inkscape:window-y="-9"
     inkscape:window-maximized="1"
     inkscape:pagecheckerboard="false"
     showguides="false" />
  <metadata
     id="metadata3726">
    <rdf:RDF>
      <cc:Work
         rdf:about="">
        <dc:format>image/svg+xml</dc:format>
        <dc:type
           rdf:resource="http://purl.org/dc/dcmitype/StillImage" />
        <dc:title></dc:title>
      </cc:Work>
    </rdf:RDF>
  </metadata>
  <g
     inkscape:label="Layer 1"
     inkscape:groupmode="layer"
     id="layer1"
     transform="translate(0,-172)">
    <flowRoot
       transform="matrix(0.26458333,0,0,0.26458333,0,118)"
       style="font-style:normal;font-weight:normal;font-size:40px;line-height:1.25;font-family:sans-serif;letter-spacing:0px;word-spacing:0px;opacity:1;fill:#ffffff;fill-opacity:1;stroke:none"
       id="flowRoot3737"
       xml:space="preserve"><flowRegion
         id="flowRegion3739"><rect
           y="260.3526"
           x="290.92392"
           height="468.71078"
           width="40.406101"
           id="rect3741" /></flowRegion><flowPara
         id="flowPara3743" /></flowRoot>    <path
       style="opacity:1;fill:#000000;stroke-width:0.3168613"
       d="m 143.06399,174.15798 c -0.49773,0.007 -0.98356,0.0333 -1.39681,0.0827 -2.25433,0.2691 -4.6237,1.86205 -7.54373,5.07204 -5.15192,5.66355 -10.69472,10.28486 -16.40313,13.67566 -1.7381,1.03245 -6.08383,3.26898 -9.6573,4.97075 -3.57347,1.70174 -10.1984,4.98244 -14.72209,7.29 l -8.224825,4.1956 -0.07338,-0.96841 c -0.09799,-1.29692 0.430125,-5.20551 1.086239,-8.0393 1.092835,-4.72 2.625198,-8.41315 6.386174,-15.39028 3.416482,-6.33832 3.802442,-7.21945 3.411682,-7.79384 -0.41175,-0.60522 -0.54828,-0.60298 -2.0867,0.0331 -1.797147,0.74302 -3.720816,2.65076 -8.29665,8.22689 -3.605763,4.39398 -5.00694,7.47246 -6.452835,14.1764 -1.620954,7.51565 -3.600194,14.61627 -4.581634,16.43775 -0.928087,1.72249 -2.307164,3.07512 -7.28431,7.14634 -1.939927,1.58683 -5.744948,4.77136 -8.455813,7.07709 -2.710865,2.30569 -7.530925,6.24955 -10.711492,8.7638 -7.584633,5.9957 -12.374758,10.38414 -15.615065,14.30507 -2.453437,2.96875 -10.414014,14.4837 -21.787302,31.51591 -4.1196756,6.16947 -6.2048726,10.03774 -5.6089596,10.40556 0.08114,0.0503 2.56813,0.0479 5.5267946,-0.006 2.958665,-0.0537 5.971485,-0.0277 6.695198,0.0579 1.925511,0.22778 3.806348,-0.3518 5.210535,-1.60507 0.72893,-0.6506 3.708682,-5.12685 7.494634,-11.25875 3.456607,-5.59847 7.931473,-12.75076 9.944095,-15.89412 4.613857,-7.20592 4.563046,-7.17069 10.406599,-7.29206 9.788321,-0.20327 13.053306,-0.60492 20.012731,-2.46342 5.87647,-1.56927 7.816543,-2.34816 9.762197,-3.9181 0.684122,-0.55207 0.819692,-0.85575 0.578257,-1.29398 -0.291915,-0.52989 -0.688911,-0.4862 -5.315953,0.58136 -7.025214,1.62086 -8.980072,1.48639 -16.333369,-1.12293 -5.106127,-1.81189 -5.313354,-1.35859 4.761466,-10.41332 18.454909,-16.58634 23.559285,-20.25079 43.897056,-31.5128 9.53606,-5.28056 9.86319,-5.43628 11.76724,-5.59294 1.40874,-0.11589 2.54137,0.0596 4.03387,0.62477 3.04077,1.15144 6.6313,1.91248 9.47694,2.00918 2.08613,0.0709 3.17304,-0.10102 6.50606,-1.02888 2.20095,-0.61271 4.36797,-1.35304 4.81521,-1.64538 0.78378,-0.51231 0.79522,-0.5994 0.31264,-2.40037 l -0.50074,-1.8681 -1.21233,0.23048 c -0.6668,0.12683 -2.8741,0.4481 -4.90513,0.71416 -4.89459,0.64119 -6.55053,0.29318 -9.19478,-1.9327 -1.07683,-0.90644 -2.00134,-1.80904 -2.05414,-2.00607 -0.0528,-0.19705 4.32277,-5.13196 9.72343,-10.96626 5.40067,-5.83428 9.79392,-10.70307 9.76272,-10.81949 -0.0609,-0.22745 -1.66011,-0.38087 -3.1533,-0.36019 z"
       id="path3846"
       inkscape:connector-curvature="0" />
  </g>
</svg>
