<?xml version="1.0" encoding="UTF-8" standalone="no"?>
<!-- Created with Inkscape (http://www.inkscape.org/) -->

<svg
   xmlns:dc="http://purl.org/dc/elements/1.1/"
   xmlns:cc="http://creativecommons.org/ns#"
   xmlns:rdf="http://www.w3.org/1999/02/22-rdf-syntax-ns#"
   xmlns:svg="http://www.w3.org/2000/svg"
   xmlns="http://www.w3.org/2000/svg"
   xmlns:sodipodi="http://sodipodi.sourceforge.net/DTD/sodipodi-0.dtd"
   xmlns:inkscape="http://www.inkscape.org/namespaces/inkscape"
   width="150mm"
   height="125mm"
   viewBox="0 0 150 125"
   version="1.1"
   id="svg3729"
   sodipodi:docname="white_branch.svg"
   inkscape:version="0.92.4 (5da689c313, 2019-01-14)"
   style="enable-background:new">
  <defs
     id="defs3723" />
  <sodipodi:namedview
     id="base"
     pagecolor="#000000"
     bordercolor="#666666"
     borderopacity="1.0"
     inkscape:pageopacity="0"
     inkscape:pageshadow="2"
     inkscape:zoom="1.4"
     inkscape:cx="326.93997"
     inkscape:cy="243.30236"
     inkscape:document-units="mm"
     inkscape:current-layer="layer1"
     showgrid="false"
     inkscape:window-width="1920"
     inkscape:window-height="1001"
     inkscape:window-x="-9"
     inkscape:window-y="-9"
     inkscape:window-maximized="1"
     inkscape:pagecheckerboard="false"
     showguides="false" />
  <metadata
     id="metadata3726">
    <rdf:RDF>
      <cc:Work
         rdf:about="">
        <dc:format>image/svg+xml</dc:format>
        <dc:type
           rdf:resource="http://purl.org/dc/dcmitype/StillImage" />
        <dc:title></dc:title>
      </cc:Work>
    </rdf:RDF>
  </metadata>
  <g
     inkscape:label="Layer 1"
     inkscape:groupmode="layer"
     id="layer1"
     transform="translate(0,-172)">
    <flowRoot
       xml:space="preserve"
       id="flowRoot3737"
       style="font-style:normal;font-weight:normal;font-size:40px;line-height:1.25;font-family:sans-serif;letter-spacing:0px;word-spacing:0px;opacity:1;fill:#000000;fill-opacity:1;stroke:none"
       transform="matrix(0.26458333,0,0,0.26458333,0,118)"><flowRegion
         id="flowRegion3739"><rect
           id="rect3741"
           width="40.406101"
           height="468.71078"
           x="290.92392"
           y="260.3526" /></flowRegion><flowPara
         id="flowPara3743" /></flowRoot>    <path
       inkscape:connector-curvature="0"
       id="path3846"
       d="m 16.406791,295.15553 c -0.723713,-0.0856 -3.736571,-0.11187 -6.695236,-0.0582 -2.9586651,0.0536 -5.4457943,0.0563 -5.5269346,0.006 C 3.588704,294.73551 5.6738442,290.86719 9.7935216,284.69772 21.166809,267.66551 29.12731,256.1503 31.580744,253.18155 c 3.240307,-3.92093 8.030504,-8.30919 15.615138,-14.30489 3.180565,-2.51425 8.000818,-6.45787 10.711684,-8.76357 2.710866,-2.30573 6.516059,-5.49052 8.455987,-7.07735 4.977145,-4.07122 6.355938,-5.42396 7.284025,-7.14645 0.98144,-1.82148 2.960503,-8.92215 4.581458,-16.4378 1.445896,-6.70394 2.847172,-9.78239 6.452936,-14.17637 4.575834,-5.57613 6.499743,-7.48378 8.29689,-8.2268 1.538421,-0.63606 1.674864,-0.63822 2.086608,-0.033 0.390765,0.57439 0.0049,1.4553 -3.41148,7.79362 -3.760977,6.97713 -5.293491,10.6703 -6.386325,15.3903 -0.656115,2.83379 -1.184285,6.74274 -1.086298,8.03966 l 0.07314,0.96807 8.2249,-4.19553 c 4.523701,-2.30755 11.148643,-5.58788 14.722123,-7.28962 3.57347,-1.70177 7.9193,-3.93881 9.65739,-4.97126 5.70842,-3.3908 11.25135,-8.01199 16.40327,-13.67554 2.92003,-3.20999 5.28921,-4.80297 7.54353,-5.07207 1.65304,-0.19732 4.46904,-0.0254 4.55029,0.27786 0.0312,0.11642 -4.36202,4.9851 -9.76268,10.81938 -5.40066,5.8343 -9.77617,10.76903 -9.72337,10.96608 0.0528,0.19703 0.97703,1.09989 2.05386,2.00633 2.64425,2.22587 4.30011,2.57394 9.1947,1.93275 2.03103,-0.26606 4.23833,-0.58756 4.90513,-0.7144 l 1.21233,-0.23066 0.50066,1.86851 c 0.48258,1.80097 0.47127,1.88772 -0.31251,2.40003 -0.44724,0.29234 -2.61394,1.03284 -4.81489,1.64555 -3.33302,0.92786 -4.42022,1.0998 -6.50635,1.02894 -2.84564,-0.0967 -6.4363,-0.85798 -9.47707,-2.00942 -1.4925,-0.56517 -2.6248,-0.74051 -4.03353,-0.62462 -1.90406,0.15666 -2.23126,0.31218 -11.76731,5.59274 -20.337766,11.26201 -25.442436,14.92655 -43.897346,31.51289 -10.074821,9.05473 -9.867561,8.60146 -4.761436,10.41335 7.353299,2.60932 9.308422,2.74372 16.333634,1.12286 4.627041,-1.06756 5.024035,-1.11096 5.31595,-0.58107 0.241435,0.43823 0.105572,0.74196 -0.578551,1.29403 -1.945652,1.56994 -3.885372,2.3484 -9.761842,3.91768 -6.959425,1.85849 -10.224386,2.26041 -20.012707,2.46368 -5.843553,0.12137 -5.792826,0.0859 -10.406684,7.29182 -2.012621,3.14336 -6.487445,10.29577 -9.944052,15.89424 -3.785952,6.1319 -6.765843,10.60842 -7.494773,11.25902 -1.404187,1.25327 -3.284867,1.83251 -5.210378,1.60473 z"
       style="opacity:1;fill:#ffffff;stroke-width:0.3168613" />
  </g>
</svg>
