<?xml version="1.0" encoding="UTF-8" standalone="no"?>
<!-- Created with Inkscape (http://www.inkscape.org/) -->

<svg
   xmlns:dc="http://purl.org/dc/elements/1.1/"
   xmlns:cc="http://creativecommons.org/ns#"
   xmlns:rdf="http://www.w3.org/1999/02/22-rdf-syntax-ns#"
   xmlns:svg="http://www.w3.org/2000/svg"
   xmlns="http://www.w3.org/2000/svg"
   xmlns:sodipodi="http://sodipodi.sourceforge.net/DTD/sodipodi-0.dtd"
   xmlns:inkscape="http://www.inkscape.org/namespaces/inkscape"
   enable-background="new"
   width="800mm"
   height="180mm"
   viewBox="0 0 800 180"
   version="1.1"
   id="svg3729"
   sodipodi:docname="black_on_white.svg"
   inkscape:version="0.92.4 (5da689c313, 2019-01-14)">
  <defs
     id="defs3723" />
  <sodipodi:namedview
     id="base"
     pagecolor="#ffffff"
     bordercolor="#666666"
     borderopacity="1.0"
     inkscape:pageopacity="0"
     inkscape:pageshadow="2"
     inkscape:zoom="0.24748737"
     inkscape:cx="1702.1963"
     inkscape:cy="119.91632"
     inkscape:document-units="mm"
     inkscape:current-layer="layer1"
     showgrid="false"
     inkscape:window-width="1920"
     inkscape:window-height="1001"
     inkscape:window-x="-9"
     inkscape:window-y="-9"
     inkscape:window-maximized="1"
     inkscape:pagecheckerboard="false"
     showguides="false" />
  <metadata
     id="metadata3726">
    <rdf:RDF>
      <cc:Work
         rdf:about="">
        <dc:format>image/svg+xml</dc:format>
        <dc:type
           rdf:resource="http://purl.org/dc/dcmitype/StillImage" />
        <dc:title></dc:title>
      </cc:Work>
    </rdf:RDF>
  </metadata>
  <g
     inkscape:label="Layer 1"
     inkscape:groupmode="layer"
     id="layer1"
     transform="translate(0,-117)">
    <flowRoot
       transform="matrix(0.26458333,0,0,0.26458333,0,118)"
       style="font-style:normal;font-weight:normal;font-size:40px;line-height:1.25;font-family:sans-serif;letter-spacing:0px;word-spacing:0px;fill:#ffffff;fill-opacity:1;stroke:none;opacity:1"
       id="flowRoot3737"
       xml:space="preserve"><flowRegion
         id="flowRegion3739"><rect
           y="260.3526"
           x="290.92392"
           height="468.71078"
           width="40.406101"
           id="rect3741" /></flowRegion><flowPara
         id="flowPara3743" /></flowRoot>    <path
       style="fill:#000000;stroke-width:0.25691694;opacity:1"
       d="m 666.645,278.60087 c -0.5868,-0.0694 -3.02968,-0.0907 -5.42862,-0.0472 -2.39894,0.0434 -4.41555,0.0457 -4.48134,0.005 -0.48318,-0.29823 1.20749,-3.43474 4.5478,-8.43706 9.22167,-13.81003 15.67619,-23.14677 17.66548,-25.55389 2.6273,-3.17916 6.51128,-6.73724 12.66104,-11.59866 2.57886,-2.03861 6.48721,-5.23616 8.68523,-7.10567 2.19802,-1.86952 5.28334,-4.45181 6.85627,-5.73844 4.03556,-3.30102 5.15351,-4.39785 5.90602,-5.79447 0.79577,-1.4769 2.40043,-7.23425 3.71473,-13.32808 1.17236,-5.43568 2.30854,-7.93174 5.23216,-11.49446 3.71017,-4.52123 5.27011,-6.06798 6.72727,-6.67044 1.24738,-0.51573 1.35801,-0.51748 1.69186,-0.0267 0.31684,0.46572 0.004,1.17998 -2.76609,6.31921 -3.04947,5.65718 -4.29206,8.65167 -5.17815,12.47873 -0.53199,2.29769 -0.96024,5.46714 -0.88079,6.51871 l 0.0593,0.78492 6.6689,-3.40181 c 3.6679,-1.871 9.03953,-4.53075 11.93697,-5.91056 2.89743,-1.37982 6.4211,-3.19366 7.83038,-4.03078 4.62849,-2.74933 9.1228,-6.49627 13.30008,-11.08838 2.36761,-2.60273 4.28859,-3.89434 6.11643,-4.11253 1.34032,-0.15999 3.62358,-0.0206 3.68946,0.22529 0.0253,0.0944 -3.53681,4.04201 -7.91576,8.77256 -4.37895,4.73055 -7.9267,8.73172 -7.88389,8.89149 0.0428,0.15976 0.7922,0.89181 1.66531,1.62677 2.14401,1.80478 3.48661,2.087 7.45523,1.56711 1.6468,-0.21573 3.43652,-0.4764 3.97716,-0.57925 l 0.98298,-0.18702 0.40595,1.51502 c 0.39128,1.46026 0.38211,1.5306 -0.25339,1.94599 -0.36264,0.23703 -2.11944,0.83744 -3.904,1.33424 -2.70248,0.75233 -3.584,0.89174 -5.27547,0.83429 -2.3073,-0.0784 -5.21867,-0.69567 -7.68418,-1.62928 -1.21015,-0.45825 -2.12824,-0.60042 -3.27046,-0.50645 -1.54385,0.12702 -1.80915,0.25312 -9.54115,4.5347 -16.49023,9.13144 -20.62919,12.10271 -35.59277,25.55122 -8.16885,7.34175 -8.0008,6.97422 -3.86066,8.44334 5.96219,2.11568 7.54744,2.22465 13.24361,0.91043 3.75169,-0.8656 4.07358,-0.90078 4.31027,-0.47114 0.19576,0.35533 0.0856,0.6016 -0.4691,1.04923 -1.57757,1.27293 -3.15033,1.90412 -7.91508,3.17652 -5.64283,1.5069 -8.29012,1.83279 -16.22667,1.9976 -4.73806,0.0984 -4.69693,0.0696 -8.43793,5.91234 -1.63187,2.54869 -5.26014,8.348 -8.06282,12.88734 -3.06972,4.97186 -5.48587,8.6015 -6.0769,9.12902 -1.13854,1.01618 -2.66343,1.48583 -4.22467,1.30115 z"
       id="path3846"
       inkscape:connector-curvature="0" />
    <text
       xml:space="preserve"
       style="font-style:normal;font-variant:normal;font-weight:normal;font-stretch:normal;font-size:198.23660278px;line-height:1.25;font-family:Coves;-inkscape-font-specification:Coves;letter-spacing:0px;word-spacing:0px;fill:#000000;fill-opacity:1;stroke:none;stroke-width:0.49559143;opacity:1"
       x="9.0346413"
       y="-150.40666"
       id="text3733"><tspan
         sodipodi:role="line"
         id="tspan3731"
         x="9.0346413"
         y="28.533049"
         style="font-style:normal;font-variant:normal;font-weight:normal;font-stretch:normal;font-size:198.23660278px;font-family:Coves;-inkscape-font-specification:Coves;stroke-width:0.49559143;opacity:1" /><tspan
         sodipodi:role="line"
         x="9.0346413"
         y="276.3288"
         style="font-style:normal;font-variant:normal;font-weight:normal;font-stretch:normal;font-size:198.23660278px;font-family:Coves;-inkscape-font-specification:Coves;stroke-width:0.49559143;opacity:1"
         id="tspan3735">brancher</tspan></text>
  </g>
</svg>
