<?xml version="1.0" encoding="UTF-8" standalone="no"?>
<!-- Created with Inkscape (http://www.inkscape.org/) -->

<svg
   xmlns:dc="http://purl.org/dc/elements/1.1/"
   xmlns:cc="http://creativecommons.org/ns#"
   xmlns:rdf="http://www.w3.org/1999/02/22-rdf-syntax-ns#"
   xmlns:svg="http://www.w3.org/2000/svg"
   xmlns="http://www.w3.org/2000/svg"
   xmlns:sodipodi="http://sodipodi.sourceforge.net/DTD/sodipodi-0.dtd"
   xmlns:inkscape="http://www.inkscape.org/namespaces/inkscape"
   width="150mm"
   height="125mm"
   viewBox="0 0 150 125"
   version="1.1"
   id="svg3729"
   sodipodi:docname="inverse_branch.svg"
   inkscape:version="0.92.4 (5da689c313, 2019-01-14)"
   style="enable-background:new;opacity:1">
  <defs
     id="defs3723" />
  <sodipodi:namedview
     id="base"
     pagecolor="#ffffff"
     bordercolor="#666666"
     borderopacity="1.0"
     inkscape:pageopacity="0"
     inkscape:pageshadow="2"
     inkscape:zoom="1.4"
     inkscape:cx="273.02184"
     inkscape:cy="235.92134"
     inkscape:document-units="mm"
     inkscape:current-layer="layer1"
     showgrid="false"
     inkscape:window-width="1920"
     inkscape:window-height="1001"
     inkscape:window-x="-9"
     inkscape:window-y="-9"
     inkscape:window-maximized="1"
     inkscape:pagecheckerboard="false"
     showguides="false" />
  <metadata
     id="metadata3726">
    <rdf:RDF>
      <cc:Work
         rdf:about="">
        <dc:format>image/svg+xml</dc:format>
        <dc:type
           rdf:resource="http://purl.org/dc/dcmitype/StillImage" />
        <dc:title></dc:title>
      </cc:Work>
    </rdf:RDF>
  </metadata>
  <g
     inkscape:label="Layer 1"
     inkscape:groupmode="layer"
     id="layer1"
     transform="translate(0,-172)">
    <flowRoot
       transform="matrix(0.26458333,0,0,0.26458333,0,118)"
       style="font-style:normal;font-weight:normal;font-size:40px;line-height:1.25;font-family:sans-serif;letter-spacing:0px;word-spacing:0px;opacity:1;fill:#ffffff;fill-opacity:1;stroke:none"
       id="flowRoot3737"
       xml:space="preserve"><flowRegion
         id="flowRegion3739"><rect
           y="260.3526"
           x="290.92392"
           height="468.71078"
           width="40.406101"
           id="rect3741" /></flowRegion><flowPara
         id="flowPara3743" /></flowRoot>    <path
       style="fill:#000000;stroke-width:0.99999994"
       d="M 2.1425781 0.29882812 L 2.1425781 473.1543 L 567.85742 473.1543 L 567.85742 0.29882812 L 2.1425781 0.29882812 z M 537.14258 12.441406 C 542.78613 12.363246 548.83037 12.943081 549.06055 13.802734 C 549.17847 14.242747 532.57409 32.64449 512.16211 54.695312 C 491.75017 76.74621 475.21255 95.397822 475.41211 96.142578 C 475.61167 96.887258 479.10587 100.29869 483.17578 103.72461 C 493.1698 112.13738 499.4285 113.45269 517.92773 111.0293 C 525.60407 110.02372 533.94661 108.80944 536.4668 108.33008 L 541.04883 107.45898 L 542.94141 114.51953 C 544.76533 121.32635 544.72208 121.65551 541.75977 123.5918 C 540.06941 124.6967 531.8791 127.49479 523.56055 129.81055 C 510.96331 133.31742 506.85529 133.96719 498.9707 133.69922 C 488.21553 133.33374 474.64502 130.45737 463.15234 126.10547 C 457.5114 123.96939 453.23062 123.30613 447.90625 123.74414 C 440.70984 124.33624 439.47344 124.92479 403.43164 144.88281 C 326.56447 187.44789 307.27233 201.2978 237.52148 263.98633 C 199.44342 298.20893 200.22663 296.49566 219.52539 303.34375 C 247.31739 313.20575 254.70584 313.71398 281.25781 307.58789 C 298.74584 303.55302 300.24633 303.38789 301.34961 305.39062 C 302.26214 307.04693 301.74971 308.19469 299.16406 310.28125 C 291.81039 316.21488 284.47786 319.15874 262.26758 325.08984 C 235.96422 332.1141 223.62413 333.63213 186.62891 334.40039 C 164.54301 334.85911 164.73509 334.72596 147.29688 361.96094 C 139.69012 373.84135 122.77724 400.87363 109.71289 422.0332 C 95.403788 445.20889 84.14173 462.12698 81.386719 464.58594 C 76.079544 469.32271 68.970915 471.51324 61.693359 470.65234 C 58.958077 470.32882 47.57101 470.23063 36.388672 470.43359 C 25.206298 470.63731 15.80652 470.64519 15.5 470.45508 C 13.247742 469.06489 21.128813 454.44464 36.699219 431.12695 C 79.684883 366.75325 109.77212 323.23219 119.04492 312.01172 C 131.29176 297.19246 149.39618 280.60623 178.0625 257.94531 C 190.08355 248.44264 208.3011 233.53668 218.54688 224.82227 C 228.79268 216.1077 243.17388 204.07169 250.50586 198.07422 C 269.31713 182.68693 274.52941 177.57465 278.03711 171.06445 C 281.74649 164.18012 289.22705 137.34311 295.35352 108.9375 C 300.8183 83.599774 306.11412 71.96459 319.74219 55.357422 C 337.0367 34.282285 344.30727 27.071936 351.09961 24.263672 C 356.91411 21.85959 357.43011 21.851226 358.98633 24.138672 C 360.46322 26.309595 359.00448 29.639848 346.0918 53.595703 C 331.87707 79.965958 326.08546 93.924302 321.95508 111.76367 C 319.47525 122.47406 317.47922 137.24669 317.84961 142.14844 L 318.12695 145.80859 L 349.21289 129.95117 C 366.3103 121.22969 391.34944 108.83021 404.85547 102.39844 C 418.3615 95.966551 434.78627 87.513501 441.35547 83.611328 C 462.93056 70.795706 483.87974 53.329371 503.35156 31.923828 C 514.3879 19.791582 523.34298 13.770977 531.86328 12.753906 C 533.42517 12.567198 535.26139 12.467863 537.14258 12.441406 z "
       transform="matrix(0.26458333,0,0,0.26458333,0,172)"
       id="rect77" />
  </g>
</svg>
